<svg xmlns="http://www.w3.org/2000/svg" width="512" height="512" viewBox="0 0 512 512" role="img" aria-labelledby="title desc">
  <title id="title">Dr. Mani Dental Care Logo</title>
  <desc id="desc">Premium DM logo for Dr. Mani Dental Care.</desc>
  <rect width="512" height="512" rx="116" fill="#D8EEEA"/>
  <rect x="36" y="36" width="440" height="440" rx="96" fill="#FFFFFF" opacity="0.72"/>
  <path d="M253.8 129.7c24.5-13 50.4 2.2 62.5 10 7.6 4.9 16.8 4.9 24.4 0 12.2-7.8 38-23 62.5-10 40.6 21.6 47.6 89.5 19.4 151.1-12.5 27.3-18.5 55.6-20.1 85.3-1.7 33.2-14.9 58.1-32.8 58.1-19.2 0-22.5-32.8-26.6-62.5-2.8-20.3-7.5-34.9-15.1-34.9s-12.3 14.6-15.1 34.9c-4.1 29.7-7.4 62.5-26.6 62.5-17.9 0-31.1-24.9-32.8-58.1-1.6-29.7-7.6-58-20.1-85.3-28.2-61.6-21.2-129.5 20.4-151.1Z" fill="#17324D" opacity="0.12"/>
  <text x="256" y="274" fill="#17324D" font-family="Poppins, Inter, Arial, sans-serif" font-size="138" font-weight="800" letter-spacing="0" text-anchor="middle">DM</text>
  <text x="256" y="335" fill="#64748B" font-family="Inter, Arial, sans-serif" font-size="36" font-weight="800" letter-spacing="0" text-anchor="middle">Dental Care</text>
</svg>
